# xmcd
#
# Track frame offsets: 
#        150
#        14685
#        28327
#        41887
#        55155
#        68427
#        83275
#        97420
#        110865
#        124640
#        139175
#        151637
#        164057
#        178617
#        191587
#        205965
#        220397
#        234937
#        248910
#        261387
#        274115
#        288140
#        300995
#
# Disc length: 4185 seconds
#
# Revision: 1
# Processed by: cddbd v1.5.1PL0 Copyright (c) Steve Scherf et al.
# Submitted via: ExactAudioCopy v0.95a5
#
DISCID=50105717
DTITLE=Various Artist - Times Ain't Like They Used To Be Vol. 2 (YazZ
DTITLE=oo 2029)
DYEAR=1997
DGENRE=
TTITLE0=Earl Johnson and His Dixie Entertainers - John Henry Blues
TTITLE1=Allen Shaw - Moanin' the Blues
TTITLE2=Ernest Stoneman and Kahle Brewer - Lonesome Road Blues
TTITLE3=Bobby Leecan and His Need More Band - Washboard Cut Out
TTITLE4=Henry Thomas - Bob McKinney
TTITLE5=Fiddling John Carson and His Virginia Reelers - Swanee River
TTITLE6=Richard "Rabbit" Brown - James Alley Blues
TTITLE7=Uncle Dave Macon and His Fruit Jar Drinkers - Sail Away Ladies
TTITLE8=Cannon's Jug Stompers - The Rooster's Crowing Blues
TTITLE9=A.A. Grey and Seven Foot Dilly - Tallapoosa Bound
TTITLE10=The Shelor Family - Billy Grimes the Rover
TTITLE11=The Massey Family - Brown Skin Girl Down the Lane
TTITLE12=Joe McCoy - You Know You Done Me Wrong
TTITLE13=Sid Harkreader and Gradey Moore - Old Joe
TTITLE14=Blind Alfred Reed - Beware
TTITLE15=Wilmer Watts and The Lonely  - Knocking Down Casey Jones
TTITLE16=Tommy Bradley - Four Day Blues
TTITLE17=Georgia Crackers - Riley the Furniture Man
TTITLE18=Emmett Lundy and Ernest Stoneman - Piney Woods Girl
TTITLE19=Louie Blue - State Street Rag
TTITLE20=Tweedy Brothers - Sugar In The Ground
TTITLE21=Southern Moonlight Entertainers - Then I'll Move To Town
TTITLE22=Rev. D.C. Rice - Lord Keep Me With A Mind
EXTD=
EXTT0=
EXTT1=
EXTT2=
EXTT3=
EXTT4=
EXTT5=
EXTT6=
EXTT7=
EXTT8=
EXTT9=
EXTT10=
EXTT11=
EXTT12=
EXTT13=
EXTT14=
EXTT15=
EXTT16=
EXTT17=
EXTT18=
EXTT19=
EXTT20=
EXTT21=
EXTT22=
PLAYORDER=
